<svg width="145" height="145" viewBox="0 0 145 145" fill="none" xmlns="http://www.w3.org/2000/svg">
<circle cx="70" cy="50" r="50" fill="#5A4EF6"/>
<circle cx="70" cy="50" r="10" stroke="#F5F5F5" stroke-width="4"/>
<rect x="45" y="28" width="50" height="44" rx="10" stroke="#F5F5F5" stroke-width="4"/>
<line x1="93" y1="50" x2="98" y2="50" stroke="#5A4EF6" stroke-width="4"/>
<line x1="43" y1="50" x2="48" y2="50" stroke="#5A4EF6" stroke-width="4"/>
<path d="M29.1006 109.867C31.6436 109.867 33.5576 110.523 34.8428 111.836C36.1416 113.148 36.791 115.254 36.791 118.152V133H31.9717V119.014C31.9717 117.291 31.6367 115.992 30.9668 115.117C30.2969 114.242 29.2783 113.805 27.9111 113.805C25.9971 113.805 24.6162 114.42 23.7686 115.65C22.9346 116.867 22.5176 118.638 22.5176 120.962V133H17.6982V119.014C17.6982 117.865 17.5479 116.908 17.2471 116.143C16.96 115.363 16.5156 114.782 15.9141 114.399C15.3125 114.003 14.5537 113.805 13.6377 113.805C12.3115 113.805 11.252 114.105 10.459 114.707C9.67969 115.309 9.11914 116.197 8.77734 117.373C8.43555 118.535 8.26465 119.964 8.26465 121.659V133H3.44531V110.298H7.19824L7.875 113.354H8.1416C8.60645 112.561 9.18066 111.911 9.86426 111.405C10.5615 110.886 11.334 110.503 12.1816 110.257C13.0293 109.997 13.9111 109.867 14.8271 109.867C16.5225 109.867 17.9512 110.168 19.1133 110.77C20.2754 111.357 21.1436 112.26 21.7178 113.477H22.0869C22.7979 112.246 23.7891 111.337 25.0605 110.749C26.332 110.161 27.6787 109.867 29.1006 109.867ZM63.6152 121.598C63.6152 123.484 63.3691 125.159 62.877 126.622C62.3848 128.085 61.667 129.322 60.7236 130.334C59.7803 131.332 58.6455 132.098 57.3193 132.631C55.9932 133.15 54.4961 133.41 52.8281 133.41C51.2695 133.41 49.8408 133.15 48.542 132.631C47.2432 132.098 46.1152 131.332 45.1582 130.334C44.2148 129.322 43.4834 128.085 42.9639 126.622C42.4443 125.159 42.1846 123.484 42.1846 121.598C42.1846 119.096 42.6152 116.977 43.4766 115.24C44.3516 113.49 45.5957 112.157 47.209 111.241C48.8223 110.325 50.7432 109.867 52.9717 109.867C55.0635 109.867 56.9092 110.325 58.5088 111.241C60.1084 112.157 61.3594 113.49 62.2617 115.24C63.1641 116.99 63.6152 119.109 63.6152 121.598ZM47.1475 121.598C47.1475 123.252 47.3457 124.667 47.7422 125.843C48.1523 127.019 48.7812 127.921 49.6289 128.55C50.4766 129.165 51.5703 129.473 52.9102 129.473C54.25 129.473 55.3438 129.165 56.1914 128.55C57.0391 127.921 57.6611 127.019 58.0576 125.843C58.4541 124.667 58.6523 123.252 58.6523 121.598C58.6523 119.943 58.4541 118.542 58.0576 117.394C57.6611 116.231 57.0391 115.35 56.1914 114.748C55.3438 114.133 54.2432 113.825 52.8896 113.825C50.8936 113.825 49.4375 114.495 48.5215 115.835C47.6055 117.175 47.1475 119.096 47.1475 121.598ZM80.8008 109.867C83.4941 109.867 85.6543 110.852 87.2812 112.82C88.9219 114.789 89.7422 117.715 89.7422 121.598C89.7422 124.168 89.3594 126.335 88.5938 128.099C87.8418 129.849 86.7822 131.175 85.415 132.077C84.0615 132.966 82.4824 133.41 80.6777 133.41C79.5293 133.41 78.5312 133.26 77.6836 132.959C76.8359 132.658 76.1113 132.269 75.5098 131.79C74.9082 131.298 74.4023 130.765 73.9922 130.19H73.7051C73.7734 130.737 73.835 131.346 73.8896 132.016C73.958 132.672 73.9922 133.273 73.9922 133.82V143.069H69.1523V110.298H73.0898L73.7666 113.436H73.9922C74.416 112.793 74.9287 112.198 75.5303 111.651C76.1455 111.104 76.8838 110.674 77.7451 110.359C78.6201 110.031 79.6387 109.867 80.8008 109.867ZM79.5088 113.805C78.1826 113.805 77.1162 114.071 76.3096 114.604C75.5166 115.124 74.9355 115.91 74.5664 116.963C74.2109 118.016 74.0195 119.335 73.9922 120.921V121.598C73.9922 123.279 74.1631 124.708 74.5049 125.884C74.8604 127.046 75.4414 127.935 76.248 128.55C77.0684 129.151 78.1758 129.452 79.5703 129.452C80.7461 129.452 81.7168 129.131 82.4824 128.488C83.2617 127.846 83.8428 126.93 84.2256 125.74C84.6084 124.551 84.7998 123.149 84.7998 121.536C84.7998 119.089 84.3623 117.188 83.4873 115.835C82.626 114.481 81.2998 113.805 79.5088 113.805ZM100.14 110.298V133H95.3203V110.298H100.14ZM97.7607 101.603C98.499 101.603 99.1348 101.801 99.668 102.197C100.215 102.594 100.488 103.277 100.488 104.248C100.488 105.205 100.215 105.889 99.668 106.299C99.1348 106.695 98.499 106.894 97.7607 106.894C96.9951 106.894 96.3457 106.695 95.8125 106.299C95.293 105.889 95.0332 105.205 95.0332 104.248C95.0332 103.277 95.293 102.594 95.8125 102.197C96.3457 101.801 96.9951 101.603 97.7607 101.603ZM116.197 133.41C114.051 133.41 112.191 132.993 110.619 132.159C109.047 131.325 107.837 130.047 106.989 128.324C106.142 126.602 105.718 124.414 105.718 121.762C105.718 119 106.183 116.744 107.112 114.994C108.042 113.244 109.327 111.952 110.968 111.118C112.622 110.284 114.516 109.867 116.648 109.867C118.002 109.867 119.226 110.004 120.319 110.277C121.427 110.537 122.363 110.858 123.129 111.241L121.693 115.097C120.859 114.755 120.005 114.468 119.13 114.235C118.255 114.003 117.414 113.887 116.607 113.887C115.281 113.887 114.174 114.181 113.285 114.769C112.41 115.356 111.754 116.231 111.316 117.394C110.893 118.556 110.681 119.998 110.681 121.721C110.681 123.389 110.899 124.797 111.337 125.945C111.774 127.08 112.424 127.941 113.285 128.529C114.146 129.104 115.206 129.391 116.464 129.391C117.708 129.391 118.822 129.24 119.807 128.939C120.791 128.639 121.721 128.249 122.596 127.771V131.954C121.734 132.446 120.812 132.809 119.827 133.041C118.843 133.287 117.633 133.41 116.197 133.41ZM143.186 126.52C143.186 128.01 142.823 129.268 142.099 130.293C141.374 131.318 140.314 132.098 138.92 132.631C137.539 133.15 135.844 133.41 133.834 133.41C132.248 133.41 130.881 133.294 129.732 133.062C128.598 132.843 127.524 132.501 126.513 132.036V127.873C127.593 128.379 128.803 128.816 130.143 129.186C131.496 129.555 132.774 129.739 133.978 129.739C135.563 129.739 136.705 129.493 137.402 129.001C138.1 128.495 138.448 127.825 138.448 126.991C138.448 126.499 138.305 126.062 138.018 125.679C137.744 125.282 137.225 124.879 136.459 124.469C135.707 124.045 134.6 123.539 133.137 122.951C131.701 122.377 130.491 121.803 129.507 121.229C128.522 120.654 127.777 119.964 127.271 119.157C126.766 118.337 126.513 117.291 126.513 116.02C126.513 114.01 127.306 112.485 128.892 111.446C130.491 110.394 132.604 109.867 135.229 109.867C136.623 109.867 137.936 110.011 139.166 110.298C140.41 110.571 141.627 110.975 142.816 111.508L141.299 115.138C140.273 114.687 139.241 114.317 138.202 114.03C137.177 113.729 136.131 113.579 135.064 113.579C133.82 113.579 132.87 113.771 132.214 114.153C131.571 114.536 131.25 115.083 131.25 115.794C131.25 116.327 131.407 116.778 131.722 117.147C132.036 117.517 132.576 117.886 133.342 118.255C134.121 118.624 135.201 119.082 136.582 119.629C137.936 120.148 139.104 120.695 140.089 121.27C141.087 121.83 141.853 122.521 142.386 123.341C142.919 124.161 143.186 125.221 143.186 126.52Z" fill="#F5F5F5"/>
</svg>
